<svg width="39" height="60" viewBox="0 0 39 60" fill="none" xmlns="http://www.w3.org/2000/svg">
<rect x="0.5" y="0.5" width="37.5714" height="59" rx="18.7857" stroke="white"/>
<path d="M22.59 41C22.3552 41.0008 22.1233 40.949 21.9112 40.8484C21.6991 40.7478 21.5122 40.6009 21.3643 40.4186L13.7743 30.99C13.5432 30.7088 13.4168 30.3561 13.4168 29.9921C13.4168 29.6282 13.5432 29.2755 13.7743 28.9943L21.6314 19.5657C21.8982 19.2448 22.2815 19.043 22.697 19.0047C23.1125 18.9664 23.5262 19.0947 23.8471 19.3614C24.1681 19.6282 24.3699 20.0114 24.4082 20.427C24.4465 20.8425 24.3182 21.2562 24.0514 21.5771L17.0271 30L23.8157 38.4229C24.0079 38.6535 24.1299 38.9344 24.1675 39.2323C24.205 39.5301 24.1564 39.8325 24.0275 40.1036C23.8985 40.3747 23.6946 40.6032 23.4399 40.7621C23.1851 40.9209 22.8902 41.0035 22.59 41Z" fill="white"/>
</svg>
